<svg xmlns="http://www.w3.org/2000/svg" width="197" height="36" viewBox="0 0 197 36" fill="none">
  <path d="M11.0938 19.4277H14.6238V16.2253H11.0938V19.4277Z" fill="#121216"/>
  <path d="M4.03906 19.4277H7.56909V16.2253H4.03906V19.4277Z" fill="#121216"/>
  <mask id="mask0_41_15189" style="mask-type:luminance" maskUnits="userSpaceOnUse" x="0" y="0" width="197" height="36">
    <path d="M0 0H196.364V36H0V0Z" fill="white"/>
  </mask>
  <g mask="url(#mask0_41_15189)">
    <path d="M7.57031 30.1035V13.1753C7.57031 11.9554 7.97875 10.9389 8.79621 10.1253C9.61289 9.31238 10.6346 8.90541 11.8601 8.90541H18.6008V12.1078H13.0856C11.7576 12.1078 11.0945 12.7689 11.0945 14.0905V16.2256V19.428V30.1035H7.57031Z" fill="#121216"/>
    <path d="M37.3711 30.1035V14.6648H40.8463L40.8556 16.5009C41.0584 16.1574 41.208 15.9682 41.5735 15.665C42.3652 14.9983 43.2985 14.6648 44.375 14.6648H48.3335V17.9989H43.6137C41.7865 17.9989 40.873 18.9083 40.873 20.7269V30.1035H37.3711Z" fill="#121216"/>
    <path d="M23.878 27.042H28.5644C29.8339 27.042 30.4686 26.4107 30.4686 25.1466V19.7523C30.4686 18.489 29.8339 17.857 28.5644 17.857H23.878C22.6081 17.857 21.9741 18.489 21.9741 19.7523V25.1466C21.9741 26.4107 22.6081 27.042 23.878 27.042ZM18.6055 26.0213V18.8774C18.6055 17.7114 18.996 16.7393 19.7772 15.9617C20.5579 15.1845 21.5346 14.7956 22.7065 14.7956H29.7363C30.9079 14.7956 31.8842 15.1845 32.6653 15.9617C33.4462 16.7393 33.8368 17.7114 33.8368 18.8774V26.0213C33.8368 27.1879 33.4462 28.1599 32.6653 28.9373C31.8842 29.7149 30.9079 30.1035 29.7363 30.1035H22.7065C21.5346 30.1035 20.5579 29.7149 19.7772 28.9373C18.996 28.1599 18.6055 27.1879 18.6055 26.0213Z" fill="#121216"/>
    <path d="M55.3656 21.1101H63.6472V19.7609C63.6472 18.462 62.9947 17.8123 61.6899 17.8123H57.323C56.0173 17.8123 55.3656 18.462 55.3656 19.7609V21.1101ZM51.9023 25.9065V18.8616C51.9023 17.6625 52.3037 16.6633 53.1068 15.8638C53.9094 15.0647 54.9136 14.6648 56.1185 14.6648H62.8942C64.0991 14.6648 65.1025 15.0647 65.906 15.8638C66.7088 16.6633 67.1101 17.6625 67.1101 18.8616V24.1078H55.3656V25.0072C55.3656 26.3063 56.0173 26.9556 57.323 26.9556H67.1101V30.1035H56.1185C54.9136 30.1035 53.9094 29.704 53.1068 28.9043C52.3037 28.1052 51.9023 27.1056 51.9023 25.9065Z" fill="#121216"/>
    <path d="M70.6443 30.1035V14.6648H74.0952V16.4254C74.2959 16.0859 74.4386 15.9537 74.8001 15.6541C75.5828 14.9945 76.5063 14.6648 77.5706 14.6648H81.4857C82.6902 14.6648 83.6938 15.0645 84.4972 15.8638C85.2999 16.6633 85.702 17.6625 85.702 18.8616V30.1035H82.2384V19.7607C82.2384 18.4618 81.5859 17.8123 80.2814 17.8123H76.9686C76.0651 17.8123 75.3619 18.0623 74.8606 18.5619C74.3581 19.0615 74.1076 19.7607 74.1076 20.6601V30.1035H70.6443Z" fill="#121216"/>
    <path d="M141.395 30.1035V14.6648H144.845V16.4254C145.046 16.0859 145.189 15.9537 145.55 15.6541C146.333 14.9945 147.257 14.6648 148.321 14.6648H152.236C153.441 14.6648 154.444 15.0645 155.247 15.8638C156.05 16.6633 156.452 17.6625 156.452 18.8616V30.1035H152.989V19.7607C152.989 18.4618 152.336 17.8123 151.031 17.8123H147.719C146.815 17.8123 146.112 18.0623 145.611 18.5619C145.108 19.0615 144.858 19.7607 144.858 20.6601V30.1035H141.395Z" fill="#121216"/>
    <path d="M104.664 30.1035V27.1994L113.723 18.0277V17.8746H104.664V16.8046V14.6648H118.945V17.5689L109.885 26.7404V26.8933H118.945V30.1035H104.664Z" fill="#121216"/>
    <path d="M126.006 21.1101H134.288V19.7609C134.288 18.462 133.635 17.8123 132.331 17.8123H127.964C126.658 17.8123 126.006 18.462 126.006 19.7609V21.1101ZM122.543 25.9065V18.8616C122.543 17.6625 122.944 16.6633 123.747 15.8638C124.55 15.0647 125.554 14.6648 126.759 14.6648H133.535C134.74 14.6648 135.743 15.0647 136.547 15.8638C137.35 16.6633 137.751 17.6625 137.751 18.8616V24.1078H126.006V25.0072C126.006 26.3063 126.658 26.9556 127.964 26.9556H137.901V30.1035H126.759C125.554 30.1035 124.55 29.704 123.747 28.9043C122.944 28.1052 122.543 27.1056 122.543 25.9065Z" fill="#121216"/>
    <path d="M159.941 25.8235V18.945C159.941 17.722 160.351 16.7032 161.17 15.8875C161.988 15.0725 163.013 14.6648 164.241 14.6648H173.608V16.8048V17.8746H165.469C164.138 17.8746 163.473 18.5377 163.473 19.8622V24.9063C163.473 26.2312 164.138 26.8935 165.469 26.8935H173.608V30.1035H164.241C163.013 30.1035 161.988 29.6962 161.17 28.8806C160.351 28.0655 159.941 27.0461 159.941 25.8235Z" fill="#121216"/>
    <path d="M180.581 21.1101H188.863V19.7609C188.863 18.462 188.21 17.8123 186.905 17.8123H182.538C181.233 17.8123 180.581 18.462 180.581 19.7609V21.1101ZM177.117 25.9065V18.8616C177.117 17.6625 177.519 16.6633 178.322 15.8638C179.125 15.0647 180.129 14.6648 181.334 14.6648H188.11C189.314 14.6648 190.318 15.0647 191.121 15.8638C191.924 16.6633 192.326 17.6625 192.326 18.8616V24.1078H180.581V25.0072C180.581 26.3063 181.233 26.9556 182.538 26.9556H192.326V30.1035H181.334C180.129 30.1035 179.125 29.704 178.322 28.9043C177.519 28.1052 177.117 27.1056 177.117 25.9065Z" fill="#121216"/>
  </g>
  <path d="M91.4375 13.1585C92.3989 15.251 92.8221 17.1438 93.0826 18.5091C93.7363 21.9582 93.4329 24.7271 93.2578 26.2158C93.104 27.5597 92.869 28.6952 92.6597 29.5501L93.2458 30.0879C93.2503 30.0795 93.2582 30.0662 93.2619 30.0521C93.463 29.6608 95.4624 25.6841 95.4753 22.3326C95.4838 20.4994 94.6763 18.1432 94.5907 17.7349C94.0994 15.3828 93.3098 13.5905 92.6176 12.455L91.4375 13.1585Z" fill="url(#paint0_linear_41_15189)"/>
  <path d="M94.4785 21.2725C94.3721 26.2019 93.381 29.8179 93.2454 30.0877L97.9498 30.1035C102.248 20.6796 99.6918 12.4964 99.6918 12.4964L92.6172 12.4548C94.0656 15.5632 94.5366 18.6108 94.4785 21.2725Z" fill="url(#paint1_linear_41_15189)"/>
  <path d="M90.9537 3.6791C90.9537 3.6791 90.9515 3.68614 90.9557 3.68614C90.9557 3.69494 90.9586 3.69826 90.9672 3.70666C90.9716 3.71546 90.9586 3.72875 90.9625 3.73716C90.9686 3.74674 90.9773 3.75416 90.983 3.76394C91.0244 3.83177 91.0311 3.93204 91.0686 3.99499C91.1153 4.08021 91.155 4.20414 91.1976 4.28917C91.206 4.31048 91.2149 4.32748 91.2231 4.34449C91.2319 4.36149 91.2404 4.3785 91.2445 4.3957C91.2873 4.48073 91.3217 4.56146 91.356 4.64669V4.65079C91.3814 4.71041 91.4028 4.77414 91.4242 4.82926C91.4285 4.85057 91.4411 4.87187 91.4456 4.89318C91.4627 4.93149 91.4752 4.97391 91.4884 5.01242C91.501 5.04721 91.5104 5.08024 91.5202 5.11367C91.5202 5.11406 91.5202 5.11445 91.5206 5.11484C91.5275 5.1385 91.5349 5.16234 91.5438 5.18658V5.19088C91.5477 5.20359 91.5477 5.21199 91.5526 5.22489C91.5565 5.22919 91.5565 5.2333 91.5565 5.2333C91.5565 5.2333 91.5565 5.23545 91.5581 5.23838C91.5581 5.23838 91.5583 5.23838 91.5583 5.23877C91.5591 5.23994 91.5599 5.24092 91.5608 5.2419C91.5734 5.28412 91.6431 5.24659 91.6537 5.28705C91.6539 5.28764 91.6539 5.28803 91.6539 5.28842C91.6596 5.30875 91.6653 5.32889 91.6704 5.34941C91.6712 5.35195 91.6718 5.3543 91.6726 5.35684C91.6775 5.37443 91.6826 5.39222 91.6883 5.4102V5.4188C91.6971 5.43581 91.7012 5.45262 91.7054 5.46962C91.7227 5.53765 91.7356 5.60157 91.7482 5.66529C91.7613 5.72061 91.7739 5.77573 91.7867 5.82714V5.83125C91.7867 5.84004 91.7867 5.85236 91.791 5.86115H91.7951C91.8081 5.92918 91.8208 5.9972 91.8338 6.06523C91.8379 6.10354 91.8466 6.14185 91.8552 6.18016C91.8762 6.29921 91.9019 6.41844 91.919 6.52889C91.9447 6.66474 91.9618 6.78398 91.9832 6.91572V6.92003C91.9832 6.92882 91.9873 6.94133 91.9873 6.95013C92.0046 7.06897 92.0176 7.18391 92.0302 7.29455C92.0343 7.31156 92.0343 7.32406 92.0343 7.33697C92.037 7.36159 92.0396 7.38681 92.0421 7.41144C92.0441 7.42962 92.0457 7.4478 92.0474 7.46559C92.05 7.49764 92.0529 7.52892 92.0553 7.56058C92.0584 7.5989 92.0618 7.63623 92.0645 7.67298C92.0657 7.69663 92.0669 7.72068 92.0682 7.74492C92.07 7.77795 92.0718 7.81137 92.0736 7.8448C92.0745 7.86826 92.0761 7.89191 92.0771 7.91537C92.0859 8.07233 92.0859 8.22147 92.0859 8.36612V8.47696C92.0859 8.48947 92.0859 8.50667 92.0816 8.52367V8.69784C92.0816 8.71055 92.0771 8.72344 92.0771 8.74045C92.0728 8.76586 92.0728 8.79596 92.0728 8.82138V8.83838C92.0688 8.89351 92.0688 8.94883 92.0645 8.99984C92.0602 9.03405 92.0602 9.06787 92.0561 9.09797C92.0561 9.11928 92.0514 9.14449 92.0514 9.1658V9.1742C92.0474 9.21662 92.0431 9.26353 92.0388 9.30575V9.31885C92.0302 9.36967 92.026 9.42538 92.0217 9.47621C92.0176 9.50611 92.0129 9.53152 92.0088 9.56104V9.56984C92.0046 9.60835 92.0003 9.64666 91.9962 9.68047C91.9915 9.69318 91.9915 9.70589 91.9873 9.71879C91.9873 9.7442 91.9832 9.76531 91.9789 9.78662C91.9748 9.79952 91.9748 9.80792 91.9748 9.82082C91.9701 9.83353 91.9701 9.84623 91.9701 9.85933C91.9701 9.86344 91.9659 9.86754 91.9659 9.87184C91.9618 9.88005 91.9618 9.88455 91.9618 9.88885C91.9534 9.93967 91.9493 9.98228 91.9404 10.0206C91.9377 10.0339 91.9351 10.0462 91.9328 10.0571C91.9286 10.0788 91.9247 10.0974 91.919 10.114C91.919 10.1201 91.9169 10.1246 91.9167 10.1287C91.9163 10.131 91.9159 10.1314 91.9153 10.1332L91.9143 10.134C91.9137 10.1353 91.9159 10.1389 91.9149 10.1398C91.9137 10.143 91.9133 10.1455 91.9125 10.1471C91.9155 10.1488 91.9184 10.1506 91.9216 10.1523H99.7296C99.7296 10.1523 100.37 8.93612 100.447 7.34537C100.481 6.62232 100.396 5.84845 100.272 5.18912C100.246 5.07145 100.223 4.95671 100.198 4.84783C100.188 4.81049 100.179 4.77374 100.169 4.73836C100.152 4.66584 100.135 4.59782 100.118 4.5298C100.089 4.43089 100.06 4.33667 100.032 4.2491C100.022 4.22017 100.012 4.19163 100.003 4.16407C99.9214 3.9428 99.8448 3.77723 99.7724 3.6791H90.9537Z" fill="url(#paint2_linear_41_15189)"/>
  <path d="M89.8867 4.44438C90.2284 5.07477 90.6199 5.94247 90.8921 7.02147C91.1625 8.09461 91.2296 9.03855 91.2283 9.75241C91.4541 9.87888 91.6844 10.0206 91.9112 10.1471C91.9142 10.1488 91.9171 10.1506 91.9203 10.1523C92.0821 9.43496 92.2478 8.25803 92.044 6.85376C91.8344 5.41294 91.3204 4.32533 90.9524 3.6791C90.5972 3.93439 90.2417 4.18928 89.8867 4.44438Z" fill="url(#paint3_linear_41_15189)"/>
  <defs>
    <linearGradient id="paint0_linear_41_15189" x1="94.0125" y1="12.6765" x2="92.1313" y2="30.7559" gradientUnits="userSpaceOnUse">
      <stop stop-color="#008FFF"/>
      <stop offset="1" stop-color="#00B3FF"/>
    </linearGradient>
    <linearGradient id="paint1_linear_41_15189" x1="95.8344" y1="15.7023" x2="95.2678" y2="11.3004" gradientUnits="userSpaceOnUse">
      <stop stop-color="#0070FF"/>
      <stop offset="1" stop-color="#00B3FF"/>
    </linearGradient>
    <linearGradient id="paint2_linear_41_15189" x1="95.724" y1="5.6912" x2="95.6053" y2="3.09954" gradientUnits="userSpaceOnUse">
      <stop stop-color="#0070FF"/>
      <stop offset="1" stop-color="#00B3FF"/>
    </linearGradient>
    <linearGradient id="paint3_linear_41_15189" x1="90.3359" y1="2.64172" x2="91.549" y2="8.40238" gradientUnits="userSpaceOnUse">
      <stop stop-color="#0070FF"/>
      <stop offset="1" stop-color="#00B3FF"/>
    </linearGradient>
  </defs>
</svg>